name p14_grf_mean_speed_1.0
datacolumns 13
datarows 40
range 0.0000000000 0.3900000000
endheader
time	grf_x_l_mean	grf_x_l_var	grf_y_l_mean	grf_y_l_var	grf_z_l_mean	grf_z_l_var	grf_x_r_mean	grf_x_r_var	grf_y_r_mean	grf_y_r_var	grf_z_r_mean	grf_z_r_var
0.0000000000	95.2503268634	1.0000000000	681.5933672219	1.0000000000	0.0000000000	0.0000000000	7.9192306903	1.0000000000	10.8631648763	1.0000000000	0.0000000000	0.0000000000
0.0100000000	104.1963403331	1.0000000000	673.7013904186	1.0000000000	0.0000000000	0.0000000000	10.4587884383	1.0000000000	41.8383469379	1.0000000000	0.0000000000	0.0000000000
0.0200000000	112.9108815682	1.0000000000	657.7251942508	1.0000000000	0.0000000000	0.0000000000	7.6325230029	1.0000000000	92.0916549959	1.0000000000	0.0000000000	0.0000000000
0.0300000000	120.2093769238	1.0000000000	632.3847317014	1.0000000000	0.0000000000	0.0000000000	-4.2308815876	1.0000000000	159.3410047452	1.0000000000	0.0000000000	0.0000000000
0.0400000000	125.3864136971	1.0000000000	596.6523120428	1.0000000000	0.0000000000	0.0000000000	-21.3239228141	1.0000000000	236.9213356462	1.0000000000	0.0000000000	0.0000000000
0.0500000000	128.1517081432	1.0000000000	549.7585057842	1.0000000000	0.0000000000	0.0000000000	-38.6019547449	1.0000000000	310.2411858320	1.0000000000	0.0000000000	0.0000000000
0.0600000000	126.0083272835	1.0000000000	490.5550843604	1.0000000000	0.0000000000	0.0000000000	-53.0275360019	1.0000000000	365.0820382284	1.0000000000	0.0000000000	0.0000000000
0.0700000000	118.5928831481	1.0000000000	420.3482573071	1.0000000000	0.0000000000	0.0000000000	-62.3477430222	1.0000000000	399.2674619167	1.0000000000	0.0000000000	0.0000000000
0.0800000000	105.2733505958	1.0000000000	343.5500147146	1.0000000000	0.0000000000	0.0000000000	-68.2478602128	1.0000000000	421.1924627770	1.0000000000	0.0000000000	0.0000000000
0.0900000000	86.4848250890	1.0000000000	265.1858721200	1.0000000000	0.0000000000	0.0000000000	-73.1192215584	1.0000000000	439.5432226952	1.0000000000	0.0000000000	0.0000000000
0.1000000000	65.0617580518	1.0000000000	191.0388873841	1.0000000000	0.0000000000	0.0000000000	-76.8288792838	1.0000000000	459.2065619772	1.0000000000	0.0000000000	0.0000000000
0.1100000000	43.4261759314	1.0000000000	127.0992522142	1.0000000000	0.0000000000	0.0000000000	-80.0584431693	1.0000000000	483.3534883019	1.0000000000	0.0000000000	0.0000000000
0.1200000000	24.2954910083	1.0000000000	76.8189058805	1.0000000000	0.0000000000	0.0000000000	-83.1860069480	1.0000000000	512.4252205000	1.0000000000	0.0000000000	0.0000000000
0.1300000000	10.3595094039	1.0000000000	40.8496274031	1.0000000000	0.0000000000	0.0000000000	-84.7949514864	1.0000000000	544.1458830549	1.0000000000	0.0000000000	0.0000000000
0.1400000000	1.5626521224	1.0000000000	17.8865909583	1.0000000000	0.0000000000	0.0000000000	-85.1435664567	1.0000000000	575.9182945724	1.0000000000	0.0000000000	0.0000000000
0.1500000000	-2.4065852818	1.0000000000	5.1422633793	1.0000000000	0.0000000000	0.0000000000	-83.9713825961	1.0000000000	604.9314855874	1.0000000000	0.0000000000	0.0000000000
0.1600000000	0.0000000000	1.0000000000	0.0000000000	1.0000000000	0.0000000000	0.0000000000	-80.8672960124	1.0000000000	628.7378609552	1.0000000000	0.0000000000	0.0000000000
0.1700000000	0.0000000000	1.0000000000	0.0000000000	1.0000000000	0.0000000000	0.0000000000	-76.7335614422	1.0000000000	646.1414648037	1.0000000000	0.0000000000	0.0000000000
0.1800000000	0.0000000000	1.0000000000	0.0000000000	1.0000000000	0.0000000000	0.0000000000	-71.5156619369	1.0000000000	656.1269739878	1.0000000000	0.0000000000	0.0000000000
0.1900000000	0.0000000000	1.0000000000	0.0000000000	1.0000000000	0.0000000000	0.0000000000	-65.5648179786	1.0000000000	658.0442325031	1.0000000000	0.0000000000	0.0000000000
0.2000000000	0.0000000000	1.0000000000	0.0000000000	1.0000000000	0.0000000000	0.0000000000	-59.7929200054	1.0000000000	652.4428939909	1.0000000000	0.0000000000	0.0000000000
0.2100000000	0.0000000000	1.0000000000	0.0000000000	1.0000000000	0.0000000000	0.0000000000	-54.0151721070	1.0000000000	640.7784532642	1.0000000000	0.0000000000	0.0000000000
0.2200000000	0.4130333975	1.0000000000	0.1072153341	1.0000000000	0.0000000000	0.0000000000	-48.4856345277	1.0000000000	624.2468250722	1.0000000000	0.0000000000	0.0000000000
0.2300000000	0.3841544029	1.0000000000	0.1486231829	1.0000000000	0.0000000000	0.0000000000	-43.4738551385	1.0000000000	604.3025230272	1.0000000000	0.0000000000	0.0000000000
0.2400000000	0.5011657646	1.0000000000	0.1367004115	1.0000000000	0.0000000000	0.0000000000	-38.7104337718	1.0000000000	583.2770806205	1.0000000000	0.0000000000	0.0000000000
0.2500000000	0.4386697355	1.0000000000	0.0963799528	1.0000000000	0.0000000000	0.0000000000	-34.2636980774	1.0000000000	563.1104781507	1.0000000000	0.0000000000	0.0000000000
0.2600000000	0.3426064146	1.0000000000	0.0328312971	1.0000000000	0.0000000000	0.0000000000	-30.0215695756	1.0000000000	545.0685645664	1.0000000000	0.0000000000	0.0000000000
0.2700000000	0.0000000000	1.0000000000	0.0000000000	1.0000000000	0.0000000000	0.0000000000	-25.7992615882	1.0000000000	530.5560198026	1.0000000000	0.0000000000	0.0000000000
0.2800000000	0.0000000000	1.0000000000	0.0000000000	1.0000000000	0.0000000000	0.0000000000	-21.7359611344	1.0000000000	520.2436498873	1.0000000000	0.0000000000	0.0000000000
0.2900000000	0.0000000000	1.0000000000	0.0000000000	1.0000000000	0.0000000000	0.0000000000	-17.6411443531	1.0000000000	513.9326842638	1.0000000000	0.0000000000	0.0000000000
0.3000000000	0.0000000000	1.0000000000	0.0000000000	1.0000000000	0.0000000000	0.0000000000	-13.4826419288	1.0000000000	511.5376894035	1.0000000000	0.0000000000	0.0000000000
0.3100000000	0.0000000000	1.0000000000	0.0000000000	1.0000000000	0.0000000000	0.0000000000	-9.2876270880	1.0000000000	512.9135650154	1.0000000000	0.0000000000	0.0000000000
0.3200000000	0.0000000000	1.0000000000	0.0000000000	1.0000000000	0.0000000000	0.0000000000	-4.8433045460	1.0000000000	517.3967730200	1.0000000000	0.0000000000	0.0000000000
0.3300000000	0.0000000000	1.0000000000	0.0000000000	1.0000000000	0.0000000000	0.0000000000	-0.3257273288	1.0000000000	524.1110009727	1.0000000000	0.0000000000	0.0000000000
0.3400000000	0.0000000000	1.0000000000	0.0000000000	1.0000000000	0.0000000000	0.0000000000	4.2929576014	1.0000000000	532.1596193820	1.0000000000	0.0000000000	0.0000000000
0.3500000000	0.0000000000	1.0000000000	0.0000000000	1.0000000000	0.0000000000	0.0000000000	9.0751853102	1.0000000000	540.8598421894	1.0000000000	0.0000000000	0.0000000000
0.3600000000	0.0000000000	1.0000000000	0.0000000000	1.0000000000	0.0000000000	0.0000000000	13.9179972185	1.0000000000	550.1116957496	1.0000000000	0.0000000000	0.0000000000
0.3700000000	0.0000000000	1.0000000000	0.0000000000	1.0000000000	0.0000000000	0.0000000000	19.0134679140	1.0000000000	559.9175579311	1.0000000000	0.0000000000	0.0000000000
0.3800000000	0.0591613396	1.0000000000	0.0286203227	1.0000000000	0.0000000000	0.0000000000	24.4385998165	1.0000000000	570.1549114480	1.0000000000	0.0000000000	0.0000000000
0.3900000000	0.0029407296	1.0000000000	0.1003607926	1.0000000000	0.0000000000	0.0000000000	30.1177187375	1.0000000000	581.2334583331	1.0000000000	0.0000000000	0.0000000000
